<?xml version="1.0" standalone="no"?>
<!DOCTYPE svg PUBLIC "-//W3C//DTD SVG 20010904//EN"
 "http://www.w3.org/TR/2001/REC-SVG-20010904/DTD/svg10.dtd">
<svg version="1.0" xmlns="http://www.w3.org/2000/svg"
 width="729.000000pt" height="741.000000pt" viewBox="0 0 729.000000 741.000000"
 preserveAspectRatio="xMidYMid meet">

<g transform="translate(0.000000,741.000000) scale(0.100000,-0.100000)"
fill="#000000" stroke="none">
<path d="M4442 5520 c-62 -28 -157 -127 -173 -179 -9 -32 -10 -44 -1 -50 13
-8 -2 -60 -31 -104 -20 -32 -21 -37 -4 -37 17 0 57 -42 57 -61 0 -8 11 13 25
45 49 120 108 166 212 166 136 0 223 -42 223 -109 0 -18 9 -40 21 -52 16 -16
20 -29 16 -55 -5 -29 -3 -34 13 -34 38 0 109 125 110 193 0 45 -20 88 -54 115
-19 14 -22 22 -13 31 8 8 7 11 -6 11 -9 0 -17 4 -17 9 0 13 -156 102 -207 117
-63 19 -120 17 -171 -6z"/>
<path d="M1110 2863 c0 -24 140 -1372 145 -1398 4 -18 33 -26 257 -69 139 -27
570 -111 958 -186 388 -76 706 -137 708 -136 1 2 157 288 346 637 205 377 339
636 333 638 -20 7 -257 55 -732 146 -1191 231 -1995 385 -2004 385 -6 0 -11
-8 -11 -17z m430 -74 c200 -38 367 -72 370 -74 5 -3 -38 -395 -45 -403 -4 -4
-690 130 -697 137 -5 5 -48 368 -48 409 0 10 8 12 28 8 15 -3 191 -38 392 -77z
m677 -130 c252 -50 264 -53 259 -73 -3 -12 -19 -96 -37 -187 -17 -92 -35 -172
-39 -179 -6 -9 -66 -1 -256 35 -137 26 -253 51 -258 56 -5 5 0 82 13 186 25
199 28 213 43 213 5 0 129 -23 275 -51z m398 -79 c50 -11 163 -34 253 -52 114
-22 162 -36 162 -45 0 -8 -17 -80 -39 -161 -21 -81 -42 -164 -45 -185 -5 -24
-12 -37 -19 -34 -7 2 -123 26 -259 52 -228 45 -248 50 -248 69 0 18 51 292 65
354 6 27 14 27 130 2z m730 -145 c132 -25 292 -55 355 -66 63 -11 123 -24 132
-27 15 -6 2 -34 -84 -193 -75 -138 -105 -185 -117 -182 -9 2 -164 32 -344 67
-180 35 -330 66 -333 69 -3 3 -1 14 4 24 5 10 29 96 53 191 43 170 44 172 69
167 14 -2 133 -25 265 -50z m-1824 -69 c182 -36 334 -67 336 -70 5 -5 -43
-405 -52 -432 -2 -7 -105 9 -297 46 -277 53 -293 57 -296 78 -2 13 -13 117
-26 232 -17 167 -19 210 -9 210 7 0 162 -29 344 -64z m624 -122 c127 -25 235
-47 241 -49 7 -2 -2 -73 -30 -217 -37 -189 -44 -213 -61 -216 -20 -2 -463 82
-470 90 -2 2 8 102 23 221 25 203 28 217 47 217 11 0 124 -20 250 -46z m535
-105 c126 -23 235 -46 242 -50 9 -6 9 -17 -1 -51 -18 -59 -167 -368 -178 -368
-19 0 -406 80 -411 85 -4 4 12 93 74 408 5 22 10 28 25 24 11 -3 123 -24 249
-48z m645 -125 c165 -31 303 -60 307 -63 5 -5 -197 -389 -214 -406 -7 -7 -81
4 -97 14 -8 5 8 49 54 146 36 76 63 141 60 144 -3 3 -108 57 -233 118 -125 62
-216 111 -202 109 14 -2 160 -30 325 -62z m-1811 -119 c154 -31 282 -58 284
-60 4 -4 -10 -126 -47 -415 -5 -40 -11 -55 -21 -53 -33 3 -455 86 -459 90 -6
4 -50 413 -51 461 0 17 3 32 7 32 3 0 132 -25 287 -55z m560 -110 c126 -24
230 -45 231 -47 4 -4 -82 -458 -87 -463 -3 -4 -362 62 -437 80 -27 7 -28 -13
9 270 24 193 27 205 43 205 6 0 115 -20 241 -45z m472 -91 c104 -20 190 -37
192 -39 2 -2 -6 -21 -17 -44 l-21 -41 40 -20 c22 -11 40 -26 40 -33 0 -12 -81
-329 -86 -335 -4 -5 -448 80 -456 87 -4 3 13 105 38 226 24 120 44 223 44 227
0 13 30 10 226 -28z m841 -163 c21 -6 16 -17 -94 -221 -64 -118 -118 -217
-120 -219 -3 -5 -454 79 -462 85 -5 4 79 327 88 336 3 3 93 -36 199 -87 l192
-94 55 109 55 110 32 -7 c18 -3 43 -9 55 -12z"/>
<path d="M5085 2830 c-22 -25 -75 -27 -75 -4 0 13 -7 11 -35 -10 -26 -20 -35
-23 -35 -12 0 24 -12 25 -70 10 -30 -8 -65 -13 -77 -11 -19 4 -22 -2 -28 -55
-6 -51 -10 -59 -32 -64 -66 -17 -313 34 -463 95 -41 17 -76 31 -77 31 -2 0 -3
-18 -3 -39 l0 -39 -42 9 c-24 5 -53 11 -65 14 -20 5 -30 -9 -93 -136 -39 -78
-69 -144 -66 -147 3 -3 36 57 72 133 l67 137 49 -6 c84 -11 78 3 78 -197 0
-118 7 -229 20 -331 31 -242 70 -692 70 -805 0 -57 5 -181 10 -276 28 -457 84
-687 167 -687 19 0 23 -5 23 -32 0 -18 -11 -67 -25 -109 -47 -148 -46 -238 3
-257 15 -6 81 -12 147 -14 l120 -3 3 204 c2 174 5 206 18 216 23 16 20 59 -5
91 -27 34 -26 40 5 77 25 29 26 36 21 107 -3 47 -13 93 -26 123 -35 75 -43
309 -30 802 6 226 14 455 17 510 l7 100 147 -396 148 -396 10 -174 c16 -259
40 -533 51 -571 5 -18 9 -70 9 -115 0 -45 6 -102 14 -125 7 -24 28 -135 46
-248 18 -113 38 -211 44 -217 9 -10 33 -8 114 12 57 14 111 25 121 25 10 0 26
9 36 20 30 33 16 110 -42 231 -27 57 -53 121 -56 141 -5 36 -4 37 49 65 57 30
65 40 37 49 -57 18 -57 18 -4 52 43 26 50 35 42 49 -15 29 -29 176 -46 466
-25 450 -45 751 -60 957 -29 373 -71 749 -86 765 -6 5 -9 4 -9 -3 0 -22 -40
-52 -68 -52 -16 0 -49 13 -73 30 -53 35 -51 35 -74 10z"/>
<path d="M1351 1372 c-1 -15 36 -153 43 -160 3 -3 223 -47 488 -98 853 -166
1053 -206 1057 -209 2 -2 -22 -137 -54 -300 l-58 -296 -26 5 c-14 3 -388 75
-831 161 -443 85 -814 157 -824 160 -10 2 -15 0 -10 -4 5 -4 214 -47 464 -96
250 -48 624 -120 830 -161 206 -41 382 -74 391 -74 14 0 27 51 73 293 31 160
58 299 59 307 2 18 4 17 -893 189 -349 67 -642 126 -650 130 -8 4 -21 37 -30
72 -19 75 -28 100 -29 81z"/>
<path d="M254 603 c-7 -46 0 -186 11 -213 3 -8 31 -26 61 -39 31 -14 80 -47
110 -74 50 -46 144 -179 144 -205 0 -7 5 -12 10 -12 18 0 12 179 -8 251 -25
91 -59 145 -135 216 -55 51 -160 123 -180 123 -3 0 -9 -21 -13 -47z"/>
<path d="M1265 526 c-60 -26 -89 -104 -62 -168 40 -94 174 -103 227 -15 67
110 -46 235 -165 183z"/>
<path d="M2524 271 c-18 -11 -38 -36 -48 -61 -55 -138 129 -244 219 -126 28
37 33 104 11 144 -32 59 -122 80 -182 43z"/>
</g>
</svg>
