<?xml version="1.0" standalone="no"?>
<!DOCTYPE svg PUBLIC "-//W3C//DTD SVG 20010904//EN"
 "http://www.w3.org/TR/2001/REC-SVG-20010904/DTD/svg10.dtd">
<svg version="1.0" xmlns="http://www.w3.org/2000/svg"
 width="1136.000000pt" height="1172.000000pt" viewBox="0 0 1136.000000 1172.000000"
 preserveAspectRatio="xMidYMid meet">

<g transform="translate(0.000000,1172.000000) scale(0.100000,-0.100000)"
fill="#000000" stroke="none">
<path d="M0 10560 c0 -638 4 -1160 8 -1160 4 0 13 26 20 58 31 150 152 315
293 400 20 12 68 34 105 49 l69 27 2700 6 c2068 4 2716 2 2767 -7 37 -7 99
-28 139 -48 l71 -35 11 30 c6 16 17 30 24 30 6 0 16 6 20 14 7 12 40 4 180
-43 95 -31 176 -60 179 -64 4 -4 16 -7 26 -7 10 0 26 -4 36 -9 9 -5 37 -15 62
-22 25 -7 49 -16 54 -21 6 -4 20 -8 32 -8 13 0 26 -4 29 -10 3 -5 15 -10 26
-10 10 0 27 -4 37 -9 9 -5 37 -15 62 -22 25 -7 49 -16 54 -21 6 -4 20 -8 32
-8 13 0 26 -4 29 -10 3 -5 15 -10 26 -10 10 0 27 -4 37 -9 9 -5 49 -18 87 -30
39 -12 79 -26 90 -30 11 -5 54 -19 95 -32 41 -12 79 -26 84 -31 6 -4 20 -8 32
-8 13 0 26 -4 29 -10 3 -5 17 -10 30 -10 13 0 27 -4 30 -10 3 -5 16 -10 29
-10 12 0 27 -5 33 -11 14 -14 143 -8 628 30 77 7 184 15 237 19 95 7 98 8 130
43 18 19 53 49 78 66 42 29 66 43 158 94 20 11 41 25 46 30 6 5 16 9 24 9 18
0 62 44 88 88 10 18 24 30 31 28 8 -3 13 2 13 14 0 18 55 104 88 139 10 10 27
12 65 6 107 -14 225 -26 311 -31 l89 -5 -7 -62 c-16 -158 -18 -225 -9 -242 10
-17 11 -17 20 1 6 10 25 79 43 152 l33 134 51 -6 c133 -14 148 -18 153 -37 3
-10 9 -19 13 -19 4 0 10 -8 13 -17 6 -19 38 -74 48 -83 3 -3 12 -21 21 -40 28
-60 77 -120 97 -120 11 0 23 -5 26 -10 3 -5 15 -10 26 -10 12 0 19 -7 19 -20
0 -15 9 -21 39 -26 79 -13 178 -113 244 -249 11 -22 23 -48 28 -57 5 -10 9
-29 9 -42 0 -14 4 -28 10 -31 5 -3 10 -29 10 -57 0 -53 18 -118 32 -118 4 0 8
-7 8 -15 0 -8 10 -31 22 -52 12 -21 39 -72 60 -113 22 -41 43 -79 49 -85 5 -5
9 -17 9 -27 0 -10 3 -18 8 -18 8 0 32 -49 32 -67 0 -7 5 -13 10 -13 6 0 10 -9
10 -20 0 -11 4 -20 8 -20 5 0 14 -16 22 -35 8 -19 17 -35 22 -35 4 0 8 -9 8
-20 0 -11 5 -20 10 -20 6 0 10 -9 10 -19 0 -11 3 -21 8 -23 4 -1 18 -25 31
-53 12 -27 28 -59 33 -69 6 -11 28 -54 49 -95 22 -42 44 -80 49 -85 16 -16 13
-1983 -2 -1987 -23 -7 -232 -4 -303 4 -123 14 -109 -6 -129 184 -10 92 -19
169 -20 171 -6 6 -473 53 -576 58 -63 3 -189 10 -280 16 -212 12 -611 4 -705
-16 -39 -8 -111 -30 -160 -50 -138 -56 -131 -61 -127 99 4 125 2 138 -18 172
-12 21 -31 43 -41 51 -10 7 -19 21 -19 31 0 9 -5 22 -11 28 -21 21 8 277 41
358 4 11 18 54 31 95 12 41 27 80 32 87 9 13 5 75 -12 183 -22 134 -31 187
-41 250 -6 36 -15 92 -20 125 -6 33 -15 85 -19 115 -5 30 -14 85 -20 123 -6
37 -16 97 -22 135 -12 76 -26 161 -40 242 -5 30 -12 81 -15 113 -4 31 -11 60
-18 64 -15 10 -259 3 -271 -7 -6 -5 -62 -11 -125 -14 -63 -3 -164 -9 -225 -13
-109 -8 -110 -8 -108 -33 1 -14 12 -52 25 -85 l23 -60 0 -2025 0 -2025 -104
-270 c-57 -148 -139 -364 -183 -480 -44 -115 -89 -231 -99 -258 l-19 -47 28 7
27 6 -28 -34 c-69 -86 -61 -48 -157 -734 -27 -198 -52 -370 -55 -383 l-5 -22
-2673 2 -2672 3 -65 22 c-36 12 -92 38 -125 58 -85 50 -198 173 -241 262 -41
85 -76 218 -72 270 l3 38 2370 5 c2220 5 2373 7 2420 23 58 20 167 79 172 93
2 5 -268 9 -700 8 -386 0 -724 4 -752 8 -46 8 -95 41 -95 65 0 4 -966 7 -2147
5 -2366 -2 -2195 -7 -2333 60 -86 41 -216 170 -261 259 -38 77 -69 163 -69
196 0 12 -4 23 -10 23 -7 0 -10 -627 -10 -1860 l0 -1860 2746 0 c2292 0 2745
2 2741 13 -3 8 -2 19 2 25 5 9 620 12 2369 14 1324 1 2362 5 2362 10 0 5 -29
47 -65 94 -51 67 -64 90 -60 112 2 15 7 52 10 83 5 46 10 59 31 69 30 17 41
53 25 87 -9 21 -9 30 4 50 24 37 75 63 122 63 68 0 102 -38 157 -176 54 -134
76 -218 76 -291 0 -29 4 -53 9 -53 10 0 63 163 90 280 72 310 54 667 -48 975
-38 113 -51 146 -101 244 -79 159 -150 260 -219 314 -66 51 -121 125 -151 205
-19 48 -19 56 -5 114 8 35 15 74 15 86 0 35 102 132 139 132 35 0 76 -31 98
-73 9 -18 36 -50 59 -73 41 -37 44 -44 44 -90 0 -39 -7 -62 -34 -106 -19 -31
-45 -91 -59 -133 l-26 -76 57 -87 c31 -48 68 -108 82 -135 14 -26 28 -47 31
-47 3 0 9 36 12 81 8 104 32 199 68 271 40 79 175 255 209 273 70 36 152 7
188 -66 l22 -43 -30 -31 c-38 -39 -40 -86 -6 -116 22 -20 25 -29 27 -123 5
-228 3 -262 -21 -308 -50 -99 -152 -163 -274 -175 -35 -3 -70 -9 -77 -14 -10
-6 -5 -36 19 -136 37 -152 50 -245 59 -410 3 -68 9 -123 12 -123 3 0 17 24 30
53 27 59 136 172 191 199 19 9 106 51 192 93 166 81 180 83 218 42 20 -21 20
9 20 5301 l0 5322 -5680 0 -5680 0 0 -1160z m11083 -4717 c4 -2 5 -9 2 -14 -3
-5 0 -6 7 -4 23 9 76 -50 96 -106 14 -43 16 -115 2 -124 -5 -3 -10 -17 -10
-30 0 -27 -82 -105 -111 -105 -10 0 -21 -4 -24 -10 -8 -13 -85 -13 -85 0 0 5
-6 7 -12 5 -7 -3 -20 0 -28 5 -12 9 -8 17 27 48 45 39 82 109 83 153 0 43 -32
128 -57 152 -27 26 -29 34 -5 40 18 5 101 -2 115 -10z"/>
<path d="M6460 7056 l0 -2283 88 -5 c57 -3 90 -1 94 6 4 6 8 980 8 2163 l0
2153 172 2 172 3 -50 24 c-27 13 -58 27 -69 31 -68 27 -85 36 -85 42 0 5 -9 8
-20 8 -11 0 -20 5 -20 10 0 6 -9 10 -20 10 -11 0 -20 5 -20 10 0 6 -6 10 -12
10 -7 0 -40 14 -73 30 -33 17 -65 30 -72 30 -7 0 -13 4 -13 8 0 7 -57 32 -73
32 -4 0 -7 -1028 -7 -2284z"/>
<path d="M10400 7811 c0 -17 -4 -33 -10 -36 -5 -3 -10 -22 -10 -41 0 -19 -4
-34 -10 -34 -5 0 -10 -18 -10 -40 0 -22 -4 -40 -10 -40 -5 0 -10 -15 -10 -34
0 -19 -4 -38 -10 -41 -5 -3 -10 -21 -10 -40 0 -19 -4 -37 -10 -40 -5 -3 -10
-26 -10 -51 0 -24 5 -44 10 -44 6 0 10 -13 10 -29 0 -17 5 -33 10 -36 6 -3 10
-17 10 -31 0 -13 5 -24 10 -24 6 0 10 -13 10 -30 0 -16 5 -30 10 -30 6 0 10
-11 10 -24 0 -14 5 -28 10 -31 6 -3 10 -17 10 -30 0 -13 5 -37 11 -52 19 -48
26 -66 48 -138 12 -38 26 -79 30 -90 7 -16 35 -106 58 -184 2 -10 7 -11 14 -4
14 14 10 65 -31 433 -6 52 -15 136 -20 185 -5 50 -14 133 -20 185 -6 52 -15
133 -20 180 -19 173 -22 195 -32 208 -19 22 -38 14 -38 -17z"/>
<path d="M2333 4003 c9 -2 25 -2 35 0 9 3 1 5 -18 5 -19 0 -27 -2 -17 -5z"/>
<path d="M2452 4005 c7 -7 3189 -7 3196 0 3 3 -716 5 -1598 5 -882 0 -1601 -2
-1598 -5z"/>
<path d="M5803 4003 c76 -2 198 -2 270 0 73 1 11 3 -138 3 -148 0 -208 -2
-132 -3z"/>
<path d="M6303 4003 c26 -2 68 -2 95 0 26 2 4 3 -48 3 -52 0 -74 -1 -47 -3z"/>
<path d="M6457 3838 c-6 -147 -17 -207 -57 -293 -28 -61 -97 -160 -139 -199
-17 -17 -31 -33 -31 -37 0 -8 287 -11 318 -2 23 5 52 66 78 160 17 61 32 438
20 487 -6 25 -8 26 -95 26 l-88 0 -6 -142z"/>
<path d="M11315 1004 c-52 -35 -65 -52 -65 -86 0 -20 10 -38 31 -57 l31 -28
-26 -50 c-13 -27 -41 -71 -62 -98 -21 -28 -44 -75 -55 -113 -29 -102 -72 -158
-153 -199 -67 -34 -143 -40 -247 -18 -46 10 -90 18 -98 19 -10 1 -24 -33 -47
-109 -17 -60 -39 -130 -48 -154 -9 -24 -16 -47 -16 -52 0 -5 180 -10 400 -11
l400 -3 0 493 c0 270 -1 492 -3 492 -1 0 -20 -12 -42 -26z"/>
</g>
</svg>
